<svg id="레이어_1" data-name="레이어 1" xmlns="http://www.w3.org/2000/svg" viewBox="0 0 153 152">
<defs>
<style>
    .cls-1{opacity:0.8;}
    .cls-2{fill:#fff;}
    .lock-circle, .lock-empty {
        transition: 1s;
    }
    <!-- .lock-circle:hover {
        fill: #A54E7D;
    }
    .lock-circle:hover ~ .lock-empty {
        fill: #A54E7D;
    } -->
</style>
</defs>
<circle class="cls-1 lock-circle" cx="76.5" cy="76" r="69"/>
<path class="cls-2" d="M94.9,71.27V56.69a18.4,18.4,0,0,0-36.8,0V71.27A7.89,7.89,0,0,0,51.52,79V102.7a7.89,7.89,0,0,0,7.89,7.89H93.59a7.89,7.89,0,0,0,7.89-7.89V79A7.89,7.89,0,0,0,94.9,71.27ZM76.5,43.55A13.16,13.16,0,0,1,89.65,56.69V71.15H63.35V56.69A13.16,13.16,0,0,1,76.5,43.55Z"/>
<circle cx="76.5" cy="96.13" r="5.26" class="lock-empty"/>
<rect x="75.19" y="82.98" width="2.63" height="10.52" rx="0.81" class="lock-empty"/>
</svg>