<svg height="512" viewBox="0 0 512 512" width="512" xmlns="http://www.w3.org/2000/svg"><g id="flat"><path d="m264 296-64 64-2.8697-14.34849a81.6679 81.6679 0 0 0 -80.08196-65.65151h-.00012a39.76778 39.76778 0 0 1 -39.46068-44.70036v-.00006a39.76776 39.76776 0 0 0 -11.34062-33.05265l-42.24692-42.24693 19.02658-10.87233a84.10647 84.10647 0 0 1 75.88734-3.8326h.00007a84.10646 84.10646 0 0 0 66.50749.77927l62.57852-26.07434h80v176z" fill="#4976f2"/><path d="m336.692 89.624 79.308-17.624 25.846-22.154 23.754 23.754-25.6 38.4-48 24-32 96h-80l-16-56-24 32 15.385 9.231-14.242 28.483-41.143-13.714v-40l48-72 56-24z" fill="#548aff"/><path d="m344 56v-5.57781a18.42218 18.42218 0 0 0 -18.42219-18.42219 18.42223 18.42223 0 0 0 -10.21881 3.094l-19.359 12.906v8z" fill="#b1712c"/><path d="m296 56v26.42221a24 24 0 0 0 24 24 24 24 0 0 0 24-24v-26.42221z" fill="#ffceb6"/><path d="m280 232-16 48v40l-40 168h24l72-184 56 184h24l-40-256z" fill="#718799"/><path d="m259.2 115.2 28.8 28.8 16-8-9.032-36.129z" fill="#4976f2"/><path d="m344 88 24 32 16-8v-32.889z" fill="#4976f2"/><path d="m30.556 106.564h21.914v16.001h-21.914z" fill="#d1e4ff" transform="matrix(.868 -.496 .496 .868 -51.369 35.69)"/><path d="m161.0835 120.51074a92.19021 92.19021 0 0 1 -37.41846-7.90527 76.43717 76.43717 0 0 0 -49.69141-4.20606l-3.94726-15.50586a92.50311 92.50311 0 0 1 60.13672 5.09083 76.40745 76.40745 0 0 0 60.18115.70507l6.57861-2.74121 6.1543 14.76953-6.57861 2.74121a92.12862 92.12862 0 0 1 -35.41504 7.05176z" fill="#d1e4ff"/><g fill="#ffceb6"><path d="m255.385 217.231-14.242 28.483 30.857 10.286 8-24z"/><path d="m465.6 73.6-23.754-23.754 30.154-25.846 16 16z"/></g></g></svg>