<svg id="flat-export" height="512" viewBox="0 0 512 512" width="512" xmlns="http://www.w3.org/2000/svg"><path d="m160 160-16 64h-64l8 24 51.32751 11.40611a32 32 0 0 0 32.98124-12.63836l27.69125-38.76775v-48z" fill="#718799"/><path d="m360 72.39a20.25092 20.25092 0 0 1 -5.01 13.34l-38.34985 43.83a42.31743 42.31743 0 0 1 -55.3 7.34l-4.01-2.67-9.33015-6.23-24 32h-64l24-56h-32l-32 32v18.34a5.65677 5.65677 0 0 1 -9.65991 4l-6.34009-6.34-16 16-15.66992-20.9a15.99157 15.99157 0 0 1 1.48-20.91l52.81982-52.82a31.99554 31.99554 0 0 1 22.6201-9.37h88.75l50 40 24-24v-18.34a5.65681 5.65681 0 0 1 9.65991-4l6.34009 6.34 16-16 10.07007 10.07a20.24167 20.24167 0 0 1 5.92993 14.32z" fill="#ffceb6"/><path d="m283 100-25.67 34.23-9.33-6.23-24 32h-64l24-56h-16v-40h70z" fill="#ffa100"/><path d="m240 304 34.79548-62.63187a41.35733 41.35733 0 0 0 5.20452-20.08489 41.35732 41.35732 0 0 0 -17.31886-33.65383l-38.68114-27.62941h-64a49.24034 49.24034 0 0 0 29.24194 44.99639l42.75806 19.00361-24 88z" fill="#8098ab"/><path d="m88 248-16 40h-16v-64h24z" fill="#d1e4ff"/><path d="m208 312 32-8 40 24v8h-72z" fill="#d1e4ff"/><path d="m216 336h64v152h-64z" fill="#4551f7"/><path d="m280 288h64v200h-64z" fill="#4f5dff"/><path d="m344 232h64v256h-64z" fill="#5c6cff"/><path d="m408 192h64v296h-64z" fill="#697dff"/><path d="m152 376h64v112h-64z" fill="#3942ed"/><path d="m88 408h64v80h-64z" fill="#2d30e0"/><path d="m24 440h64v48h-64z" fill="#232cd1"/><path d="m416 160h48v32h-48z" fill="#d1e4ff"/><path d="m432 24h16v136h-16z" fill="#bed3f7"/><path d="m448 24h40l-8 16 8 16h-40z" fill="#ef5e3b"/><path d="m247.9998 104.0002a8.00012 8.00012 0 0 0 .00025-11.31412l-18.34282-18.34282a8.00122 8.00122 0 0 0 -11.31446 0l-18.34277 18.34282a8.00012 8.00012 0 0 0 .00025 11.31412 8.00012 8.00012 0 0 0 11.31371-.00033l4.68604-4.68621v28.68634h16v-28.68634l4.68608 4.68622a8.00012 8.00012 0 0 0 11.31371.00033z" fill="#f78e00"/><path d="m232 80a16 16 0 0 1 -16-16v-8l8-8h24v16a16 16 0 0 1 -16 16z" fill="#ffceb6"/><path d="m248 48 4.68629-4.68629a11.31372 11.31372 0 0 0 3.31371-8 11.31369 11.31369 0 0 0 -11.3137-11.31371h-12.6863a16 16 0 0 0 -16 16v16l8-8z" fill="#c47220"/></svg>